<svg width="64" height="64" viewBox="0 0 64 64" fill="none" xmlns="http://www.w3.org/2000/svg">
<path d="M22.0532 49.2785C22.0532 50.707 21.5472 51.9213 20.5353 52.9213C19.5234 53.9213 18.3151 54.4213 16.9103 54.4213C15.4817 54.4213 14.2674 53.9213 13.2674 52.9213C12.2674 51.9213 11.7674 50.707 11.7674 49.2785C11.7674 47.8499 12.2674 46.6356 13.2674 45.6356C14.2674 44.6356 15.4817 44.1356 16.9103 44.1356C18.3151 44.1356 19.5234 44.6356 20.5353 45.6356C21.5472 46.6356 22.0532 47.8499 22.0532 49.2785ZM37.4817 56.1356C37.4817 57.3975 37.0353 58.4749 36.1424 59.3677C35.2496 60.2606 34.1722 60.707 32.9103 60.707C31.6484 60.707 30.571 60.2606 29.6782 59.3677C28.7853 58.4749 28.3389 57.3975 28.3389 56.1356C28.3389 54.8737 28.7853 53.7963 29.6782 52.9035C30.571 52.0106 31.6484 51.5642 32.9103 51.5642C34.1722 51.5642 35.2496 52.0106 36.1424 52.9035C37.0353 53.7963 37.4817 54.8737 37.4817 56.1356ZM15.7674 33.2785C15.7674 34.8499 15.2079 36.1951 14.0889 37.3142C12.9698 38.4332 11.6246 38.9927 10.0532 38.9927C8.48172 38.9927 7.13649 38.4332 6.01744 37.3142C4.89839 36.1951 4.33887 34.8499 4.33887 33.2785C4.33887 31.707 4.89839 30.3618 6.01744 29.2427C7.13649 28.1237 8.48172 27.5642 10.0532 27.5642C11.6246 27.5642 12.9698 28.1237 14.0889 29.2427C15.2079 30.3618 15.7674 31.707 15.7674 33.2785ZM52.9103 49.2785C52.9103 50.3737 52.5174 51.3142 51.7317 52.0999C50.946 52.8856 50.0055 53.2785 48.9103 53.2785C47.8151 53.2785 46.8746 52.8856 46.0889 52.0999C45.3032 51.3142 44.9103 50.3737 44.9103 49.2785C44.9103 48.1832 45.3032 47.2427 46.0889 46.457C46.8746 45.6713 47.8151 45.2785 48.9103 45.2785C50.0055 45.2785 50.946 45.6713 51.7317 46.457C52.5174 47.2427 52.9103 48.1832 52.9103 49.2785ZM23.196 17.2785C23.196 19.0166 22.5829 20.4987 21.3567 21.7249C20.1305 22.9511 18.6484 23.5642 16.9103 23.5642C15.1722 23.5642 13.6901 22.9511 12.4639 21.7249C11.2377 20.4987 10.6246 19.0166 10.6246 17.2785C10.6246 15.5404 11.2377 14.0582 12.4639 12.832C13.6901 11.6058 15.1722 10.9927 16.9103 10.9927C18.6484 10.9927 20.1305 11.6058 21.3567 12.832C22.5829 14.0582 23.196 15.5404 23.196 17.2785ZM39.7674 10.4213C39.7674 12.3261 39.1008 13.9451 37.7674 15.2785C36.4341 16.6118 34.8151 17.2785 32.9103 17.2785C31.0055 17.2785 29.3865 16.6118 28.0532 15.2785C26.7198 13.9451 26.0532 12.3261 26.0532 10.4213C26.0532 8.51656 26.7198 6.89751 28.0532 5.56418C29.3865 4.23084 31.0055 3.56418 32.9103 3.56418C34.8151 3.56418 36.4341 4.23084 37.7674 5.56418C39.1008 6.89751 39.7674 8.51656 39.7674 10.4213ZM59.196 33.2785C59.196 34.2308 58.8627 35.0404 58.196 35.707C57.5293 36.3737 56.7198 36.707 55.7674 36.707C54.8151 36.707 54.0055 36.3737 53.3389 35.707C52.6722 35.0404 52.3389 34.2308 52.3389 33.2785C52.3389 32.3261 52.6722 31.5166 53.3389 30.8499C54.0055 30.1832 54.8151 29.8499 55.7674 29.8499C56.7198 29.8499 57.5293 30.1832 58.196 30.8499C58.8627 31.5166 59.196 32.3261 59.196 33.2785ZM51.7674 17.2785C51.7674 18.0642 51.4877 18.7368 50.9282 19.2963C50.3686 19.8558 49.696 20.1356 48.9103 20.1356C48.1246 20.1356 47.452 19.8558 46.8924 19.2963C46.3329 18.7368 46.0532 18.0642 46.0532 17.2785C46.0532 16.4927 46.3329 15.8201 46.8924 15.2606C47.452 14.7011 48.1246 14.4213 48.9103 14.4213C49.696 14.4213 50.3686 14.7011 50.9282 15.2606C51.4877 15.8201 51.7674 16.4927 51.7674 17.2785Z" fill="#6030BF"/>
</svg>
