<svg width="64" height="64" viewBox="0 0 64 64" fill="none" xmlns="http://www.w3.org/2000/svg">
<g clip-path="url(#clip0_729_24645)">
<path d="M32 0C14.3355 0 0 14.3355 0 32C0 49.6645 14.3355 64 32 64C49.6645 64 64 49.6645 64 32C64 14.3355 49.6645 0 32 0Z" fill="#1ED760"/>
<path d="M52.4644 28.7871C51.7935 28.7871 51.3806 28.6194 50.7999 28.2839C41.6128 22.8 25.187 21.4839 14.5548 24.4516C14.0902 24.5806 13.5096 24.7871 12.8902 24.7871C11.187 24.7871 9.88379 23.4581 9.88379 21.7419C9.88379 19.9871 10.9677 18.9936 12.129 18.6581C16.6709 17.329 21.7548 16.6968 27.2902 16.6968C36.7096 16.6968 46.5806 18.6581 53.7935 22.8645C54.7999 23.4452 55.458 24.2452 55.458 25.7806C55.458 27.5355 54.0386 28.7871 52.4644 28.7871ZM48.4644 38.6194C47.7935 38.6194 47.3419 38.3226 46.8773 38.0774C38.8128 33.3032 26.787 31.3807 16.0902 34.2839C15.4709 34.4516 15.1354 34.6194 14.5548 34.6194C13.1741 34.6194 12.0515 33.4968 12.0515 32.1161C12.0515 30.7355 12.7225 29.8194 14.0515 29.4452C17.6386 28.4387 21.3031 27.6903 26.6709 27.6903C35.0451 27.6903 43.1354 29.7677 49.5096 33.5613C50.5548 34.1806 50.9677 34.9806 50.9677 36.1032C50.9548 37.4968 49.8709 38.6194 48.4644 38.6194ZM44.9935 47.0839C44.4515 47.0839 44.116 46.9161 43.6128 46.6194C35.5612 41.7677 26.1935 41.5613 16.9419 43.4581C16.4386 43.5871 15.7806 43.7936 15.4064 43.7936C14.1548 43.7936 13.3677 42.8 13.3677 41.7548C13.3677 40.4258 14.1548 39.7936 15.1225 39.5871C25.6902 37.2516 36.4902 37.4581 45.7031 42.9677C46.4902 43.471 46.9548 43.9226 46.9548 45.0968C46.9548 46.271 46.0386 47.0839 44.9935 47.0839Z" fill="black"/>
</g>
<defs>
<clipPath id="clip0_729_24645">
<rect width="64" height="64" fill="white"/>
</clipPath>
</defs>
</svg>
